<svg id="Layer_1" enable-background="new 0 0 511.843 511.843" height="512" viewBox="0 0 511.843 511.843" width="512" xmlns="http://www.w3.org/2000/svg"><path d="m414.993 511.839h-318.143c-43.98.544-67.47-53.603-37.159-85.339l52.239-66.266c-36.381-8.771-50.759-56.09-24.591-83.5l62.025-78.731c-16.452-2.982-30.228-13.769-37.146-29.624-8.186-18.762-4.64-39.736 9.254-54.759l83.792-91.616c.032-.035.064-.07.097-.105 26.305-29.202 74.819-29.198 101.121 0 .032.035.064.07.097.105l83.792 91.616c13.894 15.023 17.44 35.997 9.253 54.758-6.917 15.855-20.693 26.643-37.145 29.625l62.025 78.731c26.177 27.418 11.779 74.734-24.591 83.5l52.239 66.266c30.321 31.751 6.804 85.886-37.159 85.339zm-180.271-462.774-83.771 91.593c-.032.035-.064.07-.097.105-4.324 4.661-2.821 9.679-1.974 11.62s3.504 6.457 9.862 6.457h31.18c7.661 0 14.649 4.376 17.994 11.269 3.344 6.892 2.458 15.09-2.283 21.108 0 0-88.219 111.931-88.663 112.394-4.434 4.632-2.961 9.702-2.122 11.666s3.483 6.533 9.895 6.533h27.179c7.662 0 14.651 4.377 17.995 11.272 3.344 6.894 2.455 15.092-2.289 21.11 0 0-77.995 98.878-78.483 99.379-4.498 4.615-3.042 9.713-2.208 11.691s3.47 6.578 9.914 6.578h318.144c6.443 0 9.08-4.6 9.914-6.578s2.289-7.076-2.208-11.691c-.488-.501-78.483-99.379-78.483-99.379-4.744-6.018-5.632-14.216-2.289-21.11 3.344-6.895 10.333-11.272 17.995-11.272h27.18c6.412 0 9.056-4.569 9.895-6.534.839-1.964 2.312-7.033-2.122-11.666-.444-.463-88.663-112.394-88.663-112.394-4.741-6.018-5.627-14.216-2.283-21.108 3.345-6.893 10.333-11.269 17.994-11.269h31.18c6.358 0 9.015-4.515 9.861-6.457.847-1.941 2.351-6.959-1.974-11.62-.032-.035-83.868-91.698-83.868-91.698-10.864-12.221-31.542-12.22-42.402.001zm27.199 63.774c13.807 0 25 11.193 25 25-1.317 33.162-48.688 33.153-50 0 0-13.807 11.193-25 25-25zm-51 183c0 13.807 11.193 25 25 25 33.162-1.317 33.153-48.688 0-50-13.807 0-25 11.193-25 25zm65 115c0 13.807 11.193 25 25 25 33.162-1.317 33.153-48.688 0-50-13.807 0-25 11.193-25 25z"/></svg>